<?xml version="1.0" encoding="UTF-8"?>
<svg id="Capa_1" xmlns="http://www.w3.org/2000/svg" version="1.1" viewBox="0 0 425.2 425.2">
  <!-- Generator: Adobe Illustrator 29.8.5, SVG Export Plug-In . SVG Version: 2.1.1 Build 2)  -->
  <path d="M89.79,55.92c42.02,1.38,85.19-1.82,127.08-.05,52.23,2.21,105.23,13.26,116.19,72.73,9.62,52.22-10.31,98.97-59.47,120.63-27.11,11.94-56.3,13.64-85.48,15.99l.17-6.2c31.94-11.06,69.31-30.13,88.44-59,11.31-17.06,19.96-42.54,21.23-63.01.09-1.49.92-7.07-1.32-7.07-1.86,16.55-6.06,33.99-12.55,49.36-17.13,40.57-55.97,62.25-95.97,75.7l1.26-5.75c38.48-12.91,76.68-36.46,90.67-76.55l-16.08,24.76c-18.94,24.02-46.26,40.91-75.85,48.59l.14-4.96c22.66-4.99,43.54-19.04,59.85-35.24-1.29-2.09-2.82.44-3.83,1.28-16.55,13.64-34.44,24.75-55.55,29.98l.63-18.51c47.28-13.23,72.1-56.22,59.67-104.26-6.06-23.43-28.77-44.39-53.89-44.39h-31.28v299.91h-74.05V55.92ZM228.95,248.62c31.98-10.15,65.85-35.19,79.74-66.4,9.51-21.37,12.83-47.02,9.61-70.14-2.23-.3-1.2,2.9-1.26,4.45-.69,16.66-.74,29.51-5.2,45.86-9.06,33.17-32.05,56.99-60.79,74.51l-22.09,11.72Z"/>
</svg>