<?xml version="1.0" encoding="UTF-8"?>
<svg id="Capa_1" xmlns="http://www.w3.org/2000/svg" version="1.1" viewBox="0 0 637 425.2">
  <!-- Generator: Adobe Illustrator 29.8.5, SVG Export Plug-In . SVG Version: 2.1.1 Build 2)  -->
  <path d="M13.44,10.31c40.34,1.32,81.79-1.75,122.01-.05,50.15,2.12,101.03,12.73,111.55,69.83,9.24,50.14-9.9,95.02-57.1,115.81-26.02,11.47-54.05,13.09-82.07,15.35l.16-5.95c30.67-10.62,66.54-28.92,84.91-56.64,10.85-16.38,19.16-40.85,20.38-60.5.09-1.43.89-6.78-1.26-6.78-1.79,15.89-5.82,32.64-12.05,47.39-16.44,38.95-53.74,59.77-92.14,72.68l1.21-5.52c36.94-12.4,73.62-35.01,87.05-73.49l-15.44,23.78c-18.18,23.06-44.41,39.28-72.82,46.66l.13-4.76c21.76-4.79,41.8-18.28,57.46-33.83-1.24-2.01-2.71.42-3.68,1.22-15.89,13.09-33.07,23.76-53.33,28.78l.61-17.77c45.4-12.7,69.22-53.98,57.29-100.1-5.82-22.49-27.62-42.62-51.74-42.62h-30.03v287.95H13.44V10.31ZM147.05,195.32c30.7-9.74,63.22-33.79,76.56-63.75,9.13-20.52,12.32-45.15,9.22-67.34-2.14-.28-1.15,2.78-1.21,4.27-.66,16-.71,28.33-4.99,44.03-8.7,31.84-30.77,54.72-58.37,71.53l-21.2,11.25Z"/>
  <g>
    <path d="M14.68,404.46v-38.34h15.77c3.4,0,6.31.55,8.74,1.64,2.43,1.1,4.3,2.67,5.61,4.71,1.31,2.05,1.97,4.47,1.97,7.28s-.66,5.24-1.97,7.28c-1.31,2.05-3.19,3.61-5.61,4.71-2.43,1.1-5.34,1.64-8.74,1.64h-11.83l3.18-3.34v14.4h-7.12ZM21.79,390.82l-3.18-3.45h11.5c3.14,0,5.5-.67,7.09-2,1.59-1.33,2.38-3.2,2.38-5.61s-.79-4.33-2.38-5.64c-1.59-1.31-3.95-1.97-7.09-1.97h-11.5l3.18-3.5v22.18Z"/>
    <path d="M57.23,370.39c-1.28,0-2.33-.4-3.15-1.2-.82-.8-1.23-1.77-1.23-2.9s.41-2.14,1.23-2.93,1.87-1.18,3.15-1.18,2.33.37,3.15,1.12c.82.75,1.23,1.69,1.23,2.82,0,1.2-.4,2.22-1.2,3.04-.8.82-1.86,1.23-3.18,1.23ZM53.78,404.46v-29.24h6.85v29.24h-6.85Z"/>
    <path d="M69.6,404.46v-29.24h6.52v7.89l-1.15-2.41c1.02-1.86,2.51-3.3,4.46-4.3,1.95-1,4.21-1.51,6.76-1.51,2.34,0,4.43.46,6.27,1.37,1.84.91,3.29,2.31,4.35,4.19,1.06,1.88,1.59,4.3,1.59,7.26v16.76h-6.85v-15.88c0-2.59-.61-4.53-1.84-5.81-1.22-1.28-2.93-1.92-5.12-1.92-1.61,0-3.03.33-4.27.99-1.24.66-2.2,1.63-2.87,2.93-.68,1.3-1.01,2.93-1.01,4.9v14.79h-6.85Z"/>
    <path d="M103.23,380.69v-5.48h19.5v5.48h-19.5ZM118.13,404.84c-3.21,0-5.7-.83-7.45-2.49-1.75-1.66-2.63-4.12-2.63-7.37v-26.23h6.85v26.07c0,1.39.36,2.46,1.07,3.23.71.77,1.71,1.15,2.98,1.15,1.53,0,2.81-.4,3.83-1.2l1.92,4.87c-.8.66-1.79,1.15-2.96,1.48-1.17.33-2.37.49-3.61.49Z"/>
    <path d="M142.72,404.84c-2.48,0-4.67-.47-6.57-1.4-1.9-.93-3.38-2.35-4.44-4.27-1.06-1.92-1.59-4.34-1.59-7.26v-16.7h6.85v15.77c0,2.63.59,4.59,1.78,5.89,1.19,1.3,2.88,1.94,5.07,1.94,1.61,0,3-.33,4.19-.99,1.19-.66,2.12-1.64,2.79-2.96.67-1.31,1.01-2.94,1.01-4.87v-14.79h6.85v29.24h-6.52v-7.89l1.15,2.41c-.99,1.9-2.43,3.35-4.33,4.35-1.9,1-3.98,1.51-6.24,1.51Z"/>
    <path d="M167.64,404.46v-29.24h6.52v8.05l-.77-2.36c.88-1.97,2.25-3.47,4.13-4.49,1.88-1.02,4.23-1.53,7.04-1.53v6.52c-.29-.07-.57-.12-.82-.14-.26-.02-.51-.03-.77-.03-2.59,0-4.65.76-6.19,2.27-1.53,1.51-2.3,3.77-2.3,6.76v14.18h-6.85Z"/>
    <path d="M197.1,404.84c-2.19,0-4.11-.37-5.75-1.12-1.64-.75-2.91-1.79-3.81-3.12-.9-1.33-1.34-2.84-1.34-4.52s.39-3.12,1.18-4.44c.78-1.31,2.07-2.36,3.86-3.12,1.79-.77,4.16-1.15,7.12-1.15h8.49v4.55h-8c-2.34,0-3.91.37-4.71,1.12-.8.75-1.2,1.67-1.2,2.77,0,1.24.49,2.23,1.48,2.96.99.73,2.36,1.1,4.11,1.1s3.19-.38,4.52-1.15c1.33-.77,2.29-1.9,2.88-3.4l1.15,4.11c-.66,1.72-1.83,3.05-3.53,4s-3.84,1.42-6.44,1.42ZM206.3,404.46v-5.92l-.38-1.26v-10.35c0-2.01-.6-3.57-1.81-4.68-1.2-1.11-3.03-1.67-5.48-1.67-1.64,0-3.26.26-4.85.77-1.59.51-2.93,1.22-4.03,2.14l-2.68-4.98c1.57-1.2,3.44-2.11,5.61-2.71,2.17-.6,4.43-.9,6.76-.9,4.23,0,7.51,1.01,9.83,3.04,2.32,2.03,3.48,5.16,3.48,9.39v17.14h-6.46Z"/>
    <path d="M239.05,415.47c-1.42,0-2.85-.24-4.27-.71-1.42-.48-2.61-1.13-3.56-1.97l2.74-5.04c.69.62,1.48,1.11,2.36,1.48.88.36,1.77.55,2.68.55,1.24,0,2.25-.31,3.01-.93.77-.62,1.48-1.66,2.14-3.12l1.7-3.83.55-.82,11.06-25.85h6.57l-13.69,31.6c-.91,2.19-1.93,3.92-3.04,5.2-1.11,1.28-2.36,2.17-3.72,2.68-1.37.51-2.87.77-4.52.77ZM245.07,405.5l-13.2-30.28h7.12l10.73,25.25-4.66,5.04Z"/>
    <path d="M283.41,404.46v-29.24h6.52v8.05l-.77-2.36c.88-1.97,2.25-3.47,4.13-4.49,1.88-1.02,4.23-1.53,7.04-1.53v6.52c-.29-.07-.57-.12-.82-.14-.26-.02-.51-.03-.77-.03-2.59,0-4.65.76-6.19,2.27-1.53,1.51-2.3,3.77-2.3,6.76v14.18h-6.85Z"/>
    <path d="M319.61,404.84c-3.25,0-6.09-.65-8.52-1.94-2.43-1.3-4.31-3.08-5.64-5.34-1.33-2.26-2-4.84-2-7.72s.65-5.5,1.94-7.75c1.3-2.25,3.09-4.01,5.37-5.28,2.28-1.28,4.88-1.92,7.8-1.92s5.39.62,7.61,1.86c2.23,1.24,3.98,3,5.26,5.26,1.28,2.26,1.92,4.93,1.92,8,0,.29,0,.62-.03.99-.02.37-.05.71-.08,1.04h-24.37v-4.55h20.76l-2.68,1.42c.04-1.68-.31-3.16-1.04-4.44-.73-1.28-1.73-2.28-2.98-3.01-1.26-.73-2.71-1.1-4.35-1.1s-3.15.37-4.41,1.1-2.25,1.74-2.96,3.04c-.71,1.3-1.07,2.82-1.07,4.57v1.09c0,1.75.4,3.3,1.2,4.66.8,1.35,1.93,2.39,3.4,3.12,1.46.73,3.14,1.1,5.04,1.1,1.64,0,3.12-.26,4.44-.77,1.31-.51,2.48-1.31,3.5-2.41l3.67,4.22c-1.31,1.53-2.97,2.71-4.96,3.53-1.99.82-4.26,1.23-6.82,1.23Z"/>
    <path d="M348.96,404.84c-2.45,0-4.79-.32-7.04-.96-2.25-.64-4.03-1.42-5.34-2.33l2.63-5.2c1.31.84,2.88,1.53,4.71,2.08,1.83.55,3.65.82,5.48.82,2.15,0,3.71-.29,4.68-.88.97-.58,1.45-1.37,1.45-2.36,0-.8-.33-1.42-.99-1.84-.66-.42-1.52-.74-2.57-.96-1.06-.22-2.24-.42-3.53-.6-1.3-.18-2.59-.43-3.89-.74-1.3-.31-2.47-.77-3.53-1.37-1.06-.6-1.92-1.42-2.57-2.44-.66-1.02-.99-2.37-.99-4.05,0-1.86.53-3.48,1.59-4.85,1.06-1.37,2.55-2.43,4.46-3.18,1.92-.75,4.19-1.12,6.82-1.12,1.97,0,3.96.22,5.97.66,2.01.44,3.67,1.06,4.98,1.86l-2.63,5.2c-1.39-.84-2.78-1.42-4.19-1.73-1.41-.31-2.8-.46-4.19-.46-2.08,0-3.62.31-4.63.93-1,.62-1.51,1.41-1.51,2.36,0,.88.33,1.53.99,1.97s1.51.79,2.57,1.04c1.06.26,2.24.47,3.53.63,1.3.16,2.58.41,3.86.74,1.28.33,2.45.78,3.53,1.34,1.08.57,1.94,1.36,2.6,2.38.66,1.02.99,2.35.99,4,0,1.83-.54,3.41-1.62,4.76-1.08,1.35-2.6,2.4-4.57,3.15s-4.33,1.12-7.06,1.12Z"/>
    <path d="M364.24,380.69v-5.48h19.5v5.48h-19.5ZM379.14,404.84c-3.21,0-5.7-.83-7.45-2.49-1.75-1.66-2.63-4.12-2.63-7.37v-26.23h6.85v26.07c0,1.39.36,2.46,1.07,3.23.71.77,1.71,1.15,2.98,1.15,1.53,0,2.81-.4,3.83-1.2l1.92,4.87c-.8.66-1.79,1.15-2.96,1.48-1.17.33-2.37.49-3.61.49Z"/>
    <path d="M399.13,404.84c-2.19,0-4.11-.37-5.75-1.12-1.64-.75-2.91-1.79-3.81-3.12-.9-1.33-1.34-2.84-1.34-4.52s.39-3.12,1.18-4.44c.78-1.31,2.07-2.36,3.86-3.12,1.79-.77,4.16-1.15,7.12-1.15h8.49v4.55h-8c-2.34,0-3.91.37-4.71,1.12-.8.75-1.2,1.67-1.2,2.77,0,1.24.49,2.23,1.48,2.96.99.73,2.36,1.1,4.11,1.1s3.19-.38,4.52-1.15c1.33-.77,2.29-1.9,2.88-3.4l1.15,4.11c-.66,1.72-1.83,3.05-3.53,4s-3.84,1.42-6.44,1.42ZM408.33,404.46v-5.92l-.38-1.26v-10.35c0-2.01-.6-3.57-1.81-4.68-1.2-1.11-3.03-1.67-5.48-1.67-1.64,0-3.26.26-4.85.77-1.59.51-2.93,1.22-4.03,2.14l-2.68-4.98c1.57-1.2,3.44-2.11,5.61-2.71,2.17-.6,4.43-.9,6.76-.9,4.23,0,7.51,1.01,9.83,3.04,2.32,2.03,3.48,5.16,3.48,9.39v17.14h-6.46Z"/>
    <path d="M435.93,404.84c-2.48,0-4.67-.47-6.57-1.4-1.9-.93-3.38-2.35-4.44-4.27-1.06-1.92-1.59-4.34-1.59-7.26v-16.7h6.85v15.77c0,2.63.59,4.59,1.78,5.89,1.19,1.3,2.88,1.94,5.07,1.94,1.61,0,3-.33,4.19-.99,1.19-.66,2.12-1.64,2.79-2.96.67-1.31,1.01-2.94,1.01-4.87v-14.79h6.85v29.24h-6.52v-7.89l1.15,2.41c-.99,1.9-2.43,3.35-4.33,4.35-1.9,1-3.98,1.51-6.24,1.51Z"/>
    <path d="M460.85,404.46v-29.24h6.52v8.05l-.77-2.36c.88-1.97,2.25-3.47,4.13-4.49,1.88-1.02,4.23-1.53,7.04-1.53v6.52c-.29-.07-.57-.12-.82-.14-.26-.02-.51-.03-.77-.03-2.59,0-4.65.76-6.19,2.27-1.53,1.51-2.3,3.77-2.3,6.76v14.18h-6.85Z"/>
    <path d="M490.31,404.84c-2.19,0-4.11-.37-5.75-1.12-1.64-.75-2.91-1.79-3.81-3.12-.9-1.33-1.34-2.84-1.34-4.52s.39-3.12,1.18-4.44c.78-1.31,2.07-2.36,3.86-3.12,1.79-.77,4.16-1.15,7.12-1.15h8.49v4.55h-8c-2.34,0-3.91.37-4.71,1.12-.8.75-1.2,1.67-1.2,2.77,0,1.24.49,2.23,1.48,2.96.99.73,2.36,1.1,4.11,1.1s3.19-.38,4.52-1.15c1.33-.77,2.29-1.9,2.88-3.4l1.15,4.11c-.66,1.72-1.83,3.05-3.53,4s-3.84,1.42-6.44,1.42ZM499.51,404.46v-5.92l-.38-1.26v-10.35c0-2.01-.6-3.57-1.81-4.68-1.2-1.11-3.03-1.67-5.48-1.67-1.64,0-3.26.26-4.85.77-1.59.51-2.93,1.22-4.03,2.14l-2.68-4.98c1.57-1.2,3.44-2.11,5.61-2.71,2.17-.6,4.43-.9,6.76-.9,4.23,0,7.51,1.01,9.83,3.04,2.32,2.03,3.48,5.16,3.48,9.39v17.14h-6.46Z"/>
    <path d="M528.21,404.84c-3.07,0-5.8-.65-8.19-1.94s-4.26-3.08-5.61-5.34c-1.35-2.26-2.03-4.84-2.03-7.72s.67-5.5,2.03-7.75c1.35-2.25,3.22-4.01,5.61-5.28,2.39-1.28,5.12-1.92,8.19-1.92,2.85,0,5.36.57,7.53,1.72,2.17,1.15,3.82,2.84,4.96,5.07l-5.26,3.07c-.88-1.39-1.94-2.41-3.2-3.07-1.26-.66-2.62-.99-4.08-.99-1.68,0-3.19.37-4.54,1.1-1.35.73-2.41,1.78-3.18,3.15-.77,1.37-1.15,3-1.15,4.9s.38,3.53,1.15,4.9,1.83,2.42,3.18,3.15c1.35.73,2.87,1.1,4.54,1.1,1.46,0,2.82-.33,4.08-.99,1.26-.66,2.33-1.68,3.2-3.07l5.26,3.07c-1.13,2.19-2.78,3.88-4.96,5.07-2.17,1.19-4.68,1.78-7.53,1.78Z"/>
    <path d="M549.79,370.39c-1.28,0-2.33-.4-3.15-1.2-.82-.8-1.23-1.77-1.23-2.9s.41-2.14,1.23-2.93c.82-.79,1.87-1.18,3.15-1.18s2.33.37,3.15,1.12c.82.75,1.23,1.69,1.23,2.82,0,1.2-.4,2.22-1.2,3.04-.8.82-1.86,1.23-3.18,1.23ZM546.34,404.46v-29.24h6.85v29.24h-6.85Z"/>
    <path d="M575.31,404.84c-2.99,0-5.66-.65-8-1.94-2.34-1.3-4.18-3.08-5.53-5.34-1.35-2.26-2.03-4.84-2.03-7.72s.68-5.5,2.03-7.75c1.35-2.25,3.19-4.01,5.53-5.28,2.34-1.28,5-1.92,8-1.92s5.72.64,8.08,1.92c2.36,1.28,4.2,3.03,5.53,5.26,1.33,2.23,2,4.82,2,7.78s-.67,5.46-2,7.72c-1.33,2.26-3.18,4.05-5.53,5.34s-5.05,1.94-8.08,1.94ZM575.31,398.98c1.68,0,3.18-.37,4.49-1.1,1.31-.73,2.35-1.79,3.09-3.18.75-1.39,1.12-3.01,1.12-4.87s-.37-3.53-1.12-4.9c-.75-1.37-1.78-2.42-3.09-3.15-1.31-.73-2.79-1.1-4.44-1.1s-3.17.37-4.46,1.1c-1.3.73-2.33,1.78-3.09,3.15s-1.15,3-1.15,4.9.38,3.49,1.15,4.87c.77,1.39,1.8,2.45,3.09,3.18,1.3.73,2.77,1.1,4.41,1.1ZM570.65,371.22l7.39-7.5h8.05l-9.53,7.5h-5.92Z"/>
    <path d="M597.49,404.46v-29.24h6.52v7.89l-1.15-2.41c1.02-1.86,2.51-3.3,4.46-4.3,1.95-1,4.21-1.51,6.76-1.51,2.34,0,4.43.46,6.27,1.37,1.84.91,3.3,2.31,4.35,4.19,1.06,1.88,1.59,4.3,1.59,7.26v16.76h-6.85v-15.88c0-2.59-.61-4.53-1.83-5.81-1.22-1.28-2.93-1.92-5.12-1.92-1.61,0-3.03.33-4.27.99-1.24.66-2.2,1.63-2.88,2.93-.68,1.3-1.01,2.93-1.01,4.9v14.79h-6.85Z"/>
  </g>
  <g>
    <path d="M186.48,311.73l50.22-113.77h31.69l50.39,113.77h-33.48l-39.33-98.01h12.68l-39.33,98.01h-32.83ZM213.95,289.63l8.29-23.73h55.59l8.29,23.73h-72.17Z"/>
    <path d="M354.39,311.73v-88.26h-34.94v-25.52h101.91v25.52h-34.78v88.26h-32.18Z"/>
    <path d="M441.95,311.73l49.73-69.08-.16,22.92-47.79-67.61h36.25l30.56,44.05-15.44.16,30.07-44.21h34.78l-47.79,66.31v-22.76l50.39,70.22h-37.06l-31.04-46.32h14.79l-30.56,46.32h-36.73Z"/>
    <path d="M594.11,311.73v-113.77h32.18v113.77h-32.18Z"/>
  </g>
</svg>